<?xml version="1.0" encoding="UTF-8" standalone="no"?>
<!-- Created with Inkscape (http://www.inkscape.org/) -->

<svg
   width="260.54999mm"
   height="168.63039mm"
   viewBox="0 0 260.54999 168.63039"
   version="1.1"
   id="svg1"
   inkscape:version="1.4.3 (0d15f75, 2025-12-25)"
   sodipodi:docname="LogoDraftFinal4.svg"
   xmlns:inkscape="http://www.inkscape.org/namespaces/inkscape"
   xmlns:sodipodi="http://sodipodi.sourceforge.net/DTD/sodipodi-0.dtd"
   xmlns="http://www.w3.org/2000/svg"
   xmlns:svg="http://www.w3.org/2000/svg">
  <sodipodi:namedview
     id="namedview1"
     pagecolor="#ffffff"
     bordercolor="#000000"
     borderopacity="0.25"
     inkscape:showpageshadow="2"
     inkscape:pageopacity="0.0"
     inkscape:pagecheckerboard="true"
     inkscape:deskcolor="#d1d1d1"
     inkscape:document-units="mm"
     inkscape:zoom="0.19457751"
     inkscape:cx="110.49581"
     inkscape:cy="670.68388"
     inkscape:window-width="1189"
     inkscape:window-height="564"
     inkscape:window-x="0"
     inkscape:window-y="38"
     inkscape:window-maximized="0"
     inkscape:current-layer="layer1" />
  <defs
     id="defs1" />
  <g
     inkscape:label="Layer 1"
     inkscape:groupmode="layer"
     id="layer1"
     transform="translate(-315.11875,-281.25208)">
    <path
       id="rect97"
       style="fill:#000000;fill-opacity:0.976471;stroke-width:0.271424"
       d="m 515.1887,281.29896 a 58.304946,67.360213 0 0 0 -56.11182,68.98855 58.304946,67.360213 0 0 0 59.01191,65.67971 58.304946,67.360213 0 0 0 57.57994,-67.35506 l -0.0723,-3.34915 a 58.304946,67.360213 0 0 0 -60.40769,-63.96405 z m 7.27346,10.33787 h 5.2e-4 a 44.963986,56.924124 0 0 1 46.58527,54.05406 l 0.0553,2.83032 a 44.963986,56.924124 0 0 1 -44.40452,56.92004 44.963986,56.924124 0 0 1 -45.50937,-55.5041 44.963986,56.924124 0 0 1 43.27281,-58.30032 z m -95.30478,22.81979 a 28.427181,33.771622 0 0 0 -27.35802,34.58807 28.427181,33.771622 0 0 0 28.77189,32.92874 28.427181,33.771622 0 0 0 28.07374,-33.769 l -0.0351,-1.67896 a 28.427181,33.771622 0 0 0 -29.45247,-32.06885 z m 5.85443,6.99958 a 19.941664,27.116417 0 0 1 20.66075,25.74933 l 0.0243,1.34824 a 19.941664,27.116417 0 0 1 -19.69337,27.11462 19.941664,27.116417 0 0 1 -20.18378,-26.44025 19.941664,27.116417 0 0 1 19.19211,-27.77194 z m -117.89306,5.51956 v 6.87606 h 83.24091 a 34.677391,40.111248 0 0 1 3.12384,-6.87606 z m 0.0196,35.07537 v 6.87659 h 85.24958 a 34.677391,40.111248 0 0 1 -2.69854,-6.87659 z m 177.8956,63.66382 v 19.53214 h 11.76983 v -3.61942 h -7.23884 v -15.91272 z m 19.89388,0 -7.56078,19.53214 h 3.5388 c 0.37536,0 0.69271,-0.0985 0.95188,-0.29507 0.25918,-0.20555 0.4336,-0.43344 0.52297,-0.68368 l 1.1529,-3.40496 h 7.42642 l 1.1529,3.40496 c 0.0983,0.28598 0.27273,0.52287 0.52297,0.71055 0.25917,0.17874 0.58552,0.2682 0.97875,0.2682 h 3.51193 l -7.56078,-19.53214 z m 10.69754,0 6.03219,19.53214 h 4.10207 l 3.72691,-12.1052 c 0.0626,-0.18768 0.12502,-0.39308 0.18758,-0.6165 0.0715,-0.22343 0.13847,-0.46032 0.20102,-0.71056 0.0626,0.25024 0.12555,0.48713 0.18811,0.71056 0.0715,0.22342 0.13846,0.42882 0.20102,0.6165 l 3.67316,12.1052 h 4.10207 l 6.03219,-19.53214 h -3.56567 c -0.37536,0 -0.6972,0.0985 -0.96532,0.29507 -0.26811,0.19662 -0.43803,0.42451 -0.50953,0.68368 l -2.68097,10.18801 c -0.0804,0.3128 -0.16089,0.64814 -0.24133,1.00562 -0.0715,0.35748 -0.14296,0.7328 -0.21445,1.12603 -0.0804,-0.40216 -0.1744,-0.77748 -0.28164,-1.12603 -0.10725,-0.35748 -0.20969,-0.69282 -0.30799,-1.00562 l -3.13728,-10.18801 c -0.0983,-0.30386 -0.27671,-0.54075 -0.53588,-0.71055 -0.25024,-0.17874 -0.57209,-0.2682 -0.96532,-0.2682 h -1.34049 c -0.37535,0 -0.6972,0.10296 -0.96531,0.30851 -0.25918,0.19661 -0.4291,0.42 -0.50953,0.67024 l -3.16363,10.18801 c -0.0983,0.33067 -0.20075,0.68401 -0.30799,1.05937 -0.10725,0.36641 -0.20571,0.75973 -0.29508,1.17977 -0.0447,-0.4111 -0.11165,-0.80442 -0.20102,-1.17977 -0.0894,-0.37536 -0.17883,-0.7287 -0.2682,-1.05937 l -2.68097,-10.18801 c -0.0804,-0.29492 -0.25486,-0.53181 -0.52297,-0.71055 -0.25917,-0.17874 -0.58552,-0.2682 -0.97875,-0.2682 z m 29.43851,0.32194 v 1.40767 h 2.41277 v 6.52828 h 1.68931 v -6.52828 h 2.41277 v -1.40767 z m 7.80211,0 v 7.93595 h 1.47433 v -4.89272 l -0.10697,-0.96532 2.46651,4.46381 c 0.10725,0.25024 0.29966,0.37569 0.57671,0.37569 h 0.24082 c 0.27704,0 0.47396,-0.12545 0.59014,-0.37569 l 2.45308,-4.50412 -0.12041,1.00563 v 4.89272 h 1.47433 v -7.93595 h -1.4211 c -0.14299,0 -0.24993,0.018 -0.32143,0.0538 -0.0715,0.0357 -0.14746,0.11171 -0.22789,0.22789 l -2.26549,4.06177 c -0.0715,0.12512 -0.12549,0.24555 -0.16123,0.36173 -0.0358,0.10725 -0.0757,0.2237 -0.12041,0.34882 -0.0358,-0.12512 -0.0802,-0.24157 -0.13384,-0.34882 -0.0447,-0.11618 -0.0942,-0.23661 -0.1478,-0.36173 l -2.26549,-4.06177 c -0.0983,-0.11618 -0.17877,-0.19215 -0.24133,-0.22789 -0.0626,-0.0358 -0.1695,-0.0538 -0.32143,-0.0538 z m -121.63805,0.68058 c -0.22014,0 -0.42745,0.0425 -0.62219,0.12713 -0.18626,0.0847 -0.35558,0.20313 -0.50798,0.35553 -0.14393,0.14393 -0.25795,0.3177 -0.34261,0.5209 -0.0847,0.19473 -0.12713,0.40205 -0.12713,0.62218 0,0.22014 0.0425,0.42745 0.12713,0.62219 0.0847,0.18626 0.19868,0.35558 0.34261,0.50798 0.1524,0.14393 0.32172,0.25846 0.50798,0.34313 0.19474,0.0847 0.40205,0.12712 0.62219,0.12712 0.22013,0 0.42796,-0.0425 0.6227,-0.12712 0.19473,-0.0847 0.36404,-0.1992 0.50798,-0.34313 0.1524,-0.1524 0.27086,-0.32172 0.35553,-0.50798 0.0931,-0.19474 0.13953,-0.40205 0.13953,-0.62219 0,-0.22013 -0.0464,-0.42745 -0.13953,-0.62218 -0.0847,-0.2032 -0.20313,-0.37697 -0.35553,-0.5209 -0.14394,-0.1524 -0.31325,-0.27087 -0.50798,-0.35553 -0.19474,-0.0847 -0.40257,-0.12713 -0.6227,-0.12713 z m -114.084,0.12713 c -0.90593,0 -1.71004,0.13969 -2.41277,0.41909 -0.69427,0.2794 -1.27873,0.6521 -1.75286,1.11776 -0.47414,0.46567 -0.83793,0.99929 -1.09193,1.60042 -0.24553,0.60114 -0.36845,1.22309 -0.36845,1.86655 0,0.80434 0.12292,1.48159 0.36845,2.03192 0.254,0.54187 0.58424,0.99503 0.99064,1.35909 0.4064,0.36407 0.86795,0.66024 1.38441,0.88884 0.52494,0.2286 1.05804,0.43198 1.5999,0.60978 0.55034,0.16933 1.08396,0.33864 1.60042,0.50798 0.52494,0.16086 0.99042,0.35979 1.39682,0.59686 0.4064,0.23707 0.73218,0.53324 0.97772,0.88884 0.254,0.34713 0.38137,0.79583 0.38137,1.34617 0,0.49953 -0.0849,0.95269 -0.25425,1.35909 -0.16933,0.4064 -0.41466,0.75786 -0.73639,1.0542 -0.31327,0.28786 -0.6988,0.51196 -1.156,0.67282 -0.4572,0.16087 -0.97746,0.24133 -1.56166,0.24133 -0.70274,0 -1.30004,-0.0928 -1.79111,-0.27905 -0.4826,-0.19473 -0.89723,-0.4065 -1.24437,-0.6351 -0.33866,-0.2286 -0.62251,-0.43592 -0.85111,-0.62219 -0.2286,-0.19473 -0.43146,-0.29249 -0.60926,-0.29249 -0.11854,0 -0.22862,0.0341 -0.33022,0.10181 -0.0931,0.0593 -0.17359,0.13527 -0.24132,0.22841 l -0.71159,1.1684 c 0.6858,0.72813 1.51165,1.30814 2.47685,1.73994 0.97367,0.42334 2.04878,0.63511 3.22565,0.63511 0.9652,0 1.8246,-0.14809 2.57813,-0.44442 0.762,-0.29633 1.40125,-0.70258 1.91772,-1.21905 0.52493,-0.51646 0.92279,-1.12216 1.19372,-1.81642 0.27093,-0.70274 0.40669,-1.45206 0.40669,-2.24793 0,-0.75353 -0.12737,-1.38832 -0.38137,-1.90479 -0.24553,-0.51647 -0.57577,-0.95233 -0.99063,-1.30793 -0.4064,-0.3556 -0.87189,-0.64783 -1.39682,-0.87643 -0.51647,-0.23707 -1.05008,-0.44884 -1.60042,-0.63511 -0.54186,-0.18626 -1.07497,-0.36396 -1.5999,-0.5333 -0.51647,-0.1778 -0.98246,-0.38512 -1.39733,-0.62218 -0.4064,-0.23707 -0.73612,-0.52091 -0.99012,-0.85111 -0.24553,-0.33867 -0.36845,-0.76221 -0.36845,-1.27021 0,-0.39793 0.0721,-0.76617 0.216,-1.10484 0.14394,-0.34713 0.35519,-0.64776 0.63459,-0.90176 0.28787,-0.254 0.64378,-0.45292 1.06712,-0.59686 0.42333,-0.1524 0.91004,-0.22841 1.46037,-0.22841 0.5842,0 1.0793,0.0721 1.4857,0.21601 0.41487,0.14393 0.76633,0.30486 1.0542,0.48266 0.29633,0.16933 0.53772,0.3258 0.72399,0.46974 0.19473,0.14393 0.36404,0.216 0.50798,0.216 0.13546,0 0.24554,-0.0296 0.33021,-0.0889 0.0847,-0.0677 0.16513,-0.16549 0.24133,-0.29249 l 0.59686,-1.1684 c -0.62653,-0.6096 -1.35908,-1.07508 -2.19728,-1.39682 -0.8382,-0.32173 -1.76523,-0.48265 -2.78123,-0.48265 z m 70.65047,0.20308 v 18.19941 h 2.45101 v -7.59489 h 1.86656 c 0.33866,0 0.59289,0.0469 0.76222,0.14005 0.16934,0.0847 0.32581,0.2283 0.46974,0.4315 l 4.72478,6.50244 c 0.21167,0.34713 0.5419,0.5209 0.99064,0.5209 h 2.18436 l -5.30872,-7.22643 c -0.23707,-0.33867 -0.50807,-0.59683 -0.81287,-0.77463 0.70273,-0.16087 1.32914,-0.3978 1.87947,-0.71107 0.5588,-0.31327 1.02873,-0.69041 1.40973,-1.13068 0.38947,-0.44873 0.68564,-0.95222 0.88884,-1.51102 0.2032,-0.5588 0.30489,-1.16004 0.30489,-1.80351 0,-0.77046 -0.13131,-1.46449 -0.39377,-2.08256 -0.26247,-0.62653 -0.66872,-1.16015 -1.21905,-1.60042 -0.54187,-0.44026 -1.23196,-0.77444 -2.07016,-1.00304 -0.8382,-0.23706 -1.83285,-0.35605 -2.98431,-0.35605 z m -60.62989,1.15601 c -0.14393,0 -0.2624,0.0425 -0.35553,0.12712 -0.0931,0.0762 -0.14843,0.17737 -0.16537,0.30437 l -0.52038,3.97547 -2.1084,0.26665 v 0.90176 c 0,0.16933 0.0464,0.29618 0.13953,0.38085 0.0931,0.0762 0.20766,0.11421 0.34313,0.11421 h 1.54926 v 7.87393 c 0,1.0668 0.271,1.88375 0.81287,2.45102 0.55033,0.56726 1.33373,0.85111 2.34973,0.85111 0.5842,0 1.15137,-0.10169 1.7017,-0.30489 0.55034,-0.21167 1.02027,-0.49945 1.40973,-0.86352 l -0.66042,-1.07952 c -0.0931,-0.14393 -0.19928,-0.216 -0.31781,-0.216 -0.0677,0 -0.1482,0.0341 -0.24133,0.1018 -0.0847,0.0593 -0.19029,0.12689 -0.31729,0.20309 -0.127,0.0762 -0.27954,0.14827 -0.45734,0.216 -0.16933,0.0593 -0.3722,0.0889 -0.60926,0.0889 -0.41487,0 -0.7535,-0.13131 -1.01596,-0.39378 -0.26247,-0.26246 -0.39378,-0.66477 -0.39378,-1.20664 v -7.72149 h 3.68298 v -1.63815 h -3.68298 v -4.43228 z m 22.35212,0 c -0.14393,0 -0.26291,0.0425 -0.35605,0.12712 -0.0931,0.0762 -0.14791,0.17737 -0.16484,0.30437 l -0.5209,3.97547 -2.10788,0.26665 v 0.90176 c 0,0.16933 0.0464,0.29618 0.13952,0.38085 0.0931,0.0762 0.20767,0.11421 0.34313,0.11421 h 1.54926 v 7.87393 c 0,1.0668 0.27101,1.88375 0.81287,2.45102 0.55034,0.56726 1.33321,0.85111 2.34921,0.85111 0.5842,0 1.15138,-0.10169 1.70171,-0.30489 0.55033,-0.21167 1.02027,-0.49945 1.40973,-0.86352 l -0.66042,-1.07952 c -0.0931,-0.14393 -0.19876,-0.216 -0.3173,-0.216 -0.0677,0 -0.14819,0.0341 -0.24132,0.1018 -0.0847,0.0593 -0.1903,0.12689 -0.3173,0.20309 -0.127,0.0762 -0.27953,0.14827 -0.45733,0.216 -0.16934,0.0593 -0.37272,0.0889 -0.60979,0.0889 -0.41486,0 -0.75349,-0.13131 -1.01596,-0.39378 -0.26246,-0.26246 -0.39377,-0.66477 -0.39377,-1.20664 v -7.72149 h 3.68298 v -1.63815 h -3.68298 v -4.43228 z m 99.69469,0 c -0.14393,0 -0.2624,0.0425 -0.35553,0.12712 -0.0931,0.0762 -0.14843,0.17737 -0.16536,0.30437 l -0.52039,3.97547 -2.10839,0.26665 v 0.90176 c 0,0.16933 0.0469,0.29618 0.14004,0.38085 0.0931,0.0762 0.20715,0.11421 0.34261,0.11421 h 1.54926 v 7.87393 c 0,1.0668 0.27101,1.88375 0.81287,2.45102 0.55034,0.56726 1.33373,0.85111 2.34973,0.85111 0.5842,0 1.15137,-0.10169 1.70171,-0.30489 0.55033,-0.21167 1.02026,-0.49945 1.40973,-0.86352 l -0.6604,-1.07952 c -0.0931,-0.14393 -0.19876,-0.216 -0.31729,-0.216 -0.0677,0 -0.14819,0.0341 -0.24133,0.1018 -0.0847,0.0593 -0.19081,0.12689 -0.31781,0.20309 -0.127,0.0762 -0.27902,0.14827 -0.45682,0.216 -0.16933,0.0593 -0.37271,0.0889 -0.60978,0.0889 -0.41487,0 -0.75349,-0.13131 -1.01596,-0.39378 -0.26247,-0.26246 -0.39377,-0.66477 -0.39377,-1.20664 v -7.72149 h 3.68298 v -1.63815 h -3.68298 v -4.43228 z m -58.96591,0.78754 h 2.69235 c 1.41393,0 2.4762,0.27494 3.1874,0.82528 0.71967,0.55033 1.07952,1.36728 1.07952,2.45101 0,0.5334 -0.0928,1.02011 -0.27905,1.46038 -0.18627,0.44026 -0.46566,0.82135 -0.83819,1.14308 -0.36407,0.31327 -0.82116,0.5591 -1.3715,0.7369 -0.54186,0.16934 -1.17272,0.25374 -1.89239,0.25374 h -2.57814 z m 117.00165,0.7457 c 0.15193,0.53622 0.30386,1.03647 0.45578,1.5012 0.16087,0.45578 0.2993,0.8536 0.41548,1.1932 l 1.79628,5.34903 h -5.3356 l 1.79628,-5.32215 c 0.13405,-0.33961 0.27698,-0.74192 0.42891,-1.20665 0.15193,-0.46472 0.29988,-0.96948 0.44287,-1.51463 z m -167.49675,2.41639 c -0.99907,0 -1.90932,0.16931 -2.73059,0.50797 -0.82126,0.33867 -1.58736,0.85106 -2.29856,1.53686 l 0.40617,0.72399 c 0.0677,0.11853 0.15659,0.21971 0.26665,0.30437 0.11854,0.0762 0.25378,0.11472 0.40618,0.11472 0.19473,0 0.38973,-0.0681 0.58446,-0.2036 0.2032,-0.14393 0.44013,-0.30041 0.71107,-0.46974 0.2794,-0.1778 0.6057,-0.33427 0.97823,-0.46974 0.381,-0.14393 0.84648,-0.21601 1.39682,-0.21601 0.8382,0 1.46905,0.25817 1.89239,0.77463 0.4318,0.508 0.6475,1.26178 0.6475,2.26085 v 1.00304 c -1.45626,0.0339 -2.68785,0.16962 -3.69538,0.40669 -1.00753,0.2286 -1.825,0.52477 -2.45153,0.88884 -0.61807,0.36406 -1.06677,0.78315 -1.34617,1.25728 -0.2794,0.46567 -0.4191,0.95238 -0.4191,1.46038 0,0.5842 0.0933,1.09214 0.27957,1.52394 0.19474,0.42333 0.4529,0.7748 0.77463,1.0542 0.32174,0.2794 0.69837,0.49117 1.13017,0.6351 0.44026,0.13547 0.9102,0.20309 1.40973,0.20309 0.49107,0 0.93584,-0.0425 1.33377,-0.12713 0.4064,-0.0847 0.78748,-0.20707 1.14308,-0.36793 0.3556,-0.16934 0.69423,-0.37272 1.01596,-0.60978 0.32173,-0.24554 0.65197,-0.52048 0.99064,-0.82528 l 0.25373,1.19373 c 0.0423,0.22013 0.13118,0.36376 0.26665,0.4315 0.13547,0.0677 0.31317,0.1018 0.5333,0.1018 h 1.00356 v -8.22947 c 0,-0.71967 -0.0972,-1.38014 -0.29198,-1.98128 -0.19473,-0.60113 -0.48251,-1.11352 -0.86351,-1.53685 -0.381,-0.42334 -0.85093,-0.75357 -1.40973,-0.99064 -0.5588,-0.23707 -1.19805,-0.35553 -1.91771,-0.35553 z m 136.44851,0 c -0.87206,0 -1.63423,0.25422 -2.28616,0.76222 -0.64347,0.49954 -1.18496,1.19802 -1.62522,2.09548 l -0.15245,-2.00659 c -0.0339,-0.2286 -0.0976,-0.38953 -0.19069,-0.48266 -0.0931,-0.0931 -0.26244,-0.14004 -0.50798,-0.14004 h -1.29552 v 12.86536 h 2.26084 v -8.19175 c 0.3556,-0.87206 0.79592,-1.53647 1.32085,-1.99367 0.5334,-0.4572 1.19387,-0.68575 1.98127,-0.68575 0.44027,0 0.78283,0.0425 1.02837,0.12712 0.24553,0.0762 0.42768,0.11421 0.54622,0.11421 0.2032,0 0.3345,-0.10615 0.39377,-0.31781 l 0.29197,-1.68879 c -0.24553,-0.14393 -0.51208,-0.25401 -0.79995,-0.33021 -0.28787,-0.0847 -0.60972,-0.12712 -0.96532,-0.12712 z m -55.01628,0.0129 c -0.7112,0 -1.36722,0.0972 -1.96835,0.29198 -0.59267,0.19473 -1.10506,0.47412 -1.53686,0.83819 -0.4318,0.3556 -0.77042,0.79146 -1.01596,1.30793 -0.23706,0.508 -0.35553,1.07517 -0.35553,1.7017 0,0.7874 0.1777,1.47749 0.5333,2.07016 0.36407,0.5842 0.86362,1.05413 1.49862,1.40973 -0.27094,0.13547 -0.50787,0.29194 -0.71107,0.46974 -0.2032,0.1778 -0.37697,0.36441 -0.5209,0.55914 -0.13547,0.19474 -0.23716,0.39367 -0.30489,0.59687 -0.0677,0.19473 -0.10129,0.38527 -0.10129,0.57154 0,0.47413 0.10563,0.85521 0.3173,1.14308 0.22013,0.2794 0.51236,0.50349 0.87643,0.67283 -0.70273,0.26246 -1.25758,0.61838 -1.66398,1.06711 -0.39794,0.44027 -0.59686,0.97783 -0.59686,1.61283 0,0.44873 0.11453,0.87621 0.34313,1.28261 0.23706,0.41486 0.58853,0.77865 1.0542,1.09192 0.46566,0.31326 1.04961,0.56304 1.75234,0.74931 0.7112,0.18626 1.53654,0.27957 2.47634,0.27957 0.9398,0 1.78243,-0.12292 2.52749,-0.36846 0.74507,-0.23706 1.37593,-0.5584 1.89239,-0.9648 0.51647,-0.39793 0.90988,-0.85554 1.18081,-1.37201 0.2794,-0.51646 0.4191,-1.04956 0.4191,-1.5999 0,-0.59266 -0.12241,-1.07544 -0.36794,-1.44797 -0.24553,-0.37253 -0.57183,-0.66477 -0.97823,-0.87643 -0.4064,-0.21167 -0.86743,-0.36369 -1.3839,-0.45682 -0.51647,-0.0931 -1.04563,-0.15682 -1.5875,-0.19069 -0.5334,-0.0423 -1.05863,-0.072 -1.5751,-0.0889 -0.51646,-0.0169 -0.97801,-0.0594 -1.38441,-0.12713 -0.4064,-0.0677 -0.73218,-0.17781 -0.97772,-0.33021 -0.24553,-0.16087 -0.36845,-0.39335 -0.36845,-0.69815 0,-0.18626 0.0676,-0.37681 0.20309,-0.57154 0.14393,-0.19473 0.35177,-0.37689 0.6227,-0.54622 0.5334,0.14393 1.10057,0.21601 1.7017,0.21601 0.70274,0 1.34592,-0.0978 1.93012,-0.29249 0.59267,-0.19473 1.10112,-0.47413 1.52445,-0.83819 0.4318,-0.36407 0.76598,-0.79993 1.00304,-1.30793 0.24554,-0.51647 0.36846,-1.08809 0.36846,-1.71463 0,-0.67733 -0.14415,-1.29089 -0.43202,-1.84123 l 1.46038,-0.20309 c 0.3556,-0.0762 0.53381,-0.25441 0.53381,-0.53381 v -0.8382 h -3.49281 c -0.39793,-0.23706 -0.84218,-0.41476 -1.33325,-0.5333 -0.4826,-0.127 -1.00338,-0.19017 -1.56218,-0.19017 z m -46.07574,0.0124 c -0.72813,0 -1.37576,0.10169 -1.94303,0.30489 -0.56727,0.2032 -1.04559,0.47814 -1.43505,0.82527 -0.38947,0.33867 -0.68564,0.73704 -0.88884,1.19424 -0.2032,0.44874 -0.30489,0.91815 -0.30489,1.40922 0,0.55033 0.0928,1.02027 0.27905,1.40973 0.19474,0.381 0.44896,0.70285 0.76223,0.96532 0.31327,0.26246 0.66867,0.48262 1.0666,0.66042 0.4064,0.16934 0.8171,0.32187 1.23197,0.45734 0.42333,0.13547 0.83403,0.26677 1.23196,0.39377 0.4064,0.11854 0.76626,0.26217 1.07952,0.4315 0.31327,0.16087 0.56305,0.3598 0.74931,0.59686 0.19474,0.2286 0.29197,0.52084 0.29197,0.87644 0,0.28786 -0.0548,0.55887 -0.16484,0.81287 -0.1016,0.254 -0.26253,0.47861 -0.48266,0.67334 -0.22013,0.19473 -0.49507,0.35121 -0.82527,0.46974 -0.3302,0.11007 -0.71574,0.16485 -1.15601,0.16485 -0.51646,0 -0.94839,-0.0592 -1.29552,-0.17777 -0.33867,-0.11853 -0.63039,-0.24984 -0.87592,-0.39377 -0.23707,-0.14394 -0.44045,-0.27473 -0.60978,-0.39326 -0.16933,-0.11853 -0.33026,-0.17777 -0.48266,-0.17777 -0.1524,0 -0.27532,0.0296 -0.36845,0.0889 -0.0931,0.0593 -0.1736,0.14366 -0.24133,0.25373 l -0.5333,0.86351 c 0.508,0.4572 1.12602,0.83383 1.85415,1.13016 0.72813,0.28787 1.54114,0.43202 2.43861,0.43202 0.7874,0 1.48143,-0.10563 2.08256,-0.3173 0.60113,-0.21166 1.10907,-0.49944 1.52394,-0.86351 0.41486,-0.37253 0.72833,-0.80891 0.93999,-1.30845 0.21167,-0.508 0.31781,-1.05839 0.31781,-1.65106 0,-0.51646 -0.0978,-0.95678 -0.29249,-1.32085 -0.18626,-0.37253 -0.43604,-0.68547 -0.7493,-0.93947 -0.31327,-0.254 -0.66867,-0.46577 -1.06661,-0.63511 -0.39793,-0.16933 -0.80863,-0.32187 -1.23196,-0.45733 -0.41487,-0.14394 -0.82112,-0.27525 -1.21905,-0.39378 -0.39793,-0.127 -0.75385,-0.27063 -1.06712,-0.4315 -0.31326,-0.16086 -0.56698,-0.35141 -0.76171,-0.57154 -0.18627,-0.22013 -0.27957,-0.49559 -0.27957,-0.82579 0,-0.26246 0.0553,-0.50333 0.16537,-0.72347 0.11853,-0.2286 0.28339,-0.42753 0.49506,-0.59686 0.22013,-0.16933 0.48275,-0.30064 0.78755,-0.39378 0.3048,-0.1016 0.64736,-0.15244 1.02836,-0.15244 0.44026,0 0.82135,0.0508 1.14308,0.15244 0.32173,0.0931 0.59719,0.19876 0.82579,0.3173 0.23707,0.11006 0.43599,0.21176 0.59686,0.30489 0.16087,0.0931 0.3045,0.13953 0.4315,0.13953 0.21167,0 0.36866,-0.0928 0.47026,-0.27906 l 0.50797,-0.82579 c -0.49106,-0.46566 -1.07553,-0.82945 -1.75286,-1.09192 -0.66887,-0.27093 -1.42658,-0.40669 -2.27325,-0.40669 z m 33.52819,0 c -0.93133,0 -1.76951,0.16537 -2.51458,0.49557 -0.74506,0.32174 -1.37592,0.77044 -1.89239,1.34617 -0.51646,0.56727 -0.91432,1.24007 -1.19372,2.019 -0.27094,0.77894 -0.4067,1.61711 -0.4067,2.51458 0,1.10913 0.15254,2.09146 0.45734,2.94659 0.3048,0.85513 0.72834,1.57484 1.27021,2.15904 0.55033,0.57573 1.19796,1.01605 1.94303,1.32085 0.75353,0.29633 1.57493,0.44442 2.46393,0.44442 0.46567,0 0.93509,-0.0425 1.40922,-0.12713 0.47413,-0.0762 0.93174,-0.19466 1.37201,-0.35553 0.44873,-0.16087 0.86782,-0.36425 1.25729,-0.60978 0.38946,-0.254 0.72364,-0.55017 1.00304,-0.88884 l -0.63511,-0.82527 c -0.1016,-0.14393 -0.24523,-0.21601 -0.43149,-0.21601 -0.14394,0 -0.3177,0.0676 -0.5209,0.20309 -0.19474,0.127 -0.44006,0.2667 -0.73639,0.4191 -0.29634,0.1524 -0.65225,0.29654 -1.06712,0.43201 -0.4064,0.127 -0.89311,0.19017 -1.46038,0.19017 -0.6096,0 -1.15999,-0.0972 -1.65106,-0.29197 -0.49107,-0.2032 -0.91409,-0.50382 -1.26969,-0.90175 -0.3556,-0.4064 -0.63499,-0.90989 -0.83819,-1.51102 -0.2032,-0.60114 -0.31328,-1.30852 -0.33021,-2.12132 h 8.55968 c 0.21167,0 0.3553,-0.0592 0.4315,-0.17777 0.0762,-0.11853 0.11472,-0.35547 0.11472,-0.71107 0,-0.9144 -0.13576,-1.72741 -0.40669,-2.43861 -0.26247,-0.71966 -0.63071,-1.32039 -1.10484,-1.80299 -0.47414,-0.49106 -1.03686,-0.86376 -1.68879,-1.11776 -0.65193,-0.26247 -1.36325,-0.39377 -2.13372,-0.39377 z m 31.54691,0 c -0.72813,0 -1.37628,0.10169 -1.94355,0.30489 -0.56727,0.2032 -1.04559,0.47814 -1.43505,0.82527 -0.38947,0.33867 -0.68564,0.73704 -0.88884,1.19424 -0.2032,0.44874 -0.30489,0.91815 -0.30489,1.40922 0,0.55033 0.0933,1.02027 0.27957,1.40973 0.19473,0.381 0.44844,0.70285 0.76171,0.96532 0.31327,0.26246 0.66919,0.48262 1.06712,0.66042 0.4064,0.16934 0.8171,0.32187 1.23197,0.45734 0.42333,0.13547 0.83403,0.26677 1.23196,0.39377 0.4064,0.11854 0.76626,0.26217 1.07952,0.4315 0.31327,0.16087 0.56304,0.3598 0.74931,0.59686 0.19473,0.2286 0.29197,0.52084 0.29197,0.87644 0,0.28786 -0.0553,0.55887 -0.16536,0.81287 -0.1016,0.254 -0.26253,0.47861 -0.48266,0.67334 -0.22013,0.19473 -0.49507,0.35121 -0.82527,0.46974 -0.3302,0.11007 -0.71522,0.16485 -1.15549,0.16485 -0.51646,0 -0.94839,-0.0592 -1.29553,-0.17777 -0.33866,-0.11853 -0.6309,-0.24984 -0.87643,-0.39377 -0.23706,-0.14394 -0.44045,-0.27473 -0.60978,-0.39326 -0.16933,-0.11853 -0.33026,-0.17777 -0.48266,-0.17777 -0.1524,0 -0.2748,0.0296 -0.36793,0.0889 -0.0931,0.0593 -0.1736,0.14366 -0.24133,0.25373 l -0.5333,0.86351 c 0.508,0.4572 1.12601,0.83383 1.85415,1.13016 0.72813,0.28787 1.54062,0.43202 2.43809,0.43202 0.7874,0 1.48194,-0.10563 2.08308,-0.3173 0.60113,-0.21166 1.10907,-0.49944 1.52394,-0.86351 0.41486,-0.37253 0.72832,-0.80891 0.93999,-1.30845 0.21167,-0.508 0.31729,-1.05839 0.31729,-1.65106 0,-0.51646 -0.0972,-0.95678 -0.29197,-1.32085 -0.18627,-0.37253 -0.43604,-0.68547 -0.74931,-0.93947 -0.31326,-0.254 -0.66918,-0.46577 -1.06712,-0.63511 -0.39793,-0.16933 -0.80863,-0.32187 -1.23196,-0.45733 -0.41487,-0.14394 -0.82112,-0.27525 -1.21905,-0.39378 -0.39793,-0.127 -0.75333,-0.27063 -1.0666,-0.4315 -0.31327,-0.16086 -0.56749,-0.35141 -0.76223,-0.57154 -0.18626,-0.22013 -0.27905,-0.49559 -0.27905,-0.82579 0,-0.26246 0.0548,-0.50333 0.16485,-0.72347 0.11853,-0.2286 0.28391,-0.42753 0.49557,-0.59686 0.22014,-0.16933 0.48224,-0.30064 0.78704,-0.39378 0.3048,-0.1016 0.64787,-0.15244 1.02887,-0.15244 0.44027,0 0.82135,0.0508 1.14309,0.15244 0.32173,0.0931 0.59667,0.19876 0.82527,0.3173 0.23707,0.11006 0.436,0.21176 0.59686,0.30489 0.16087,0.0931 0.30502,0.13953 0.43202,0.13953 0.21166,0 0.36814,-0.0928 0.46974,-0.27906 l 0.50798,-0.82579 c -0.49107,-0.46566 -1.07502,-0.82945 -1.75235,-1.09192 -0.66887,-0.27093 -1.42658,-0.40669 -2.27325,-0.40669 z m 21.74234,0 c -0.93133,0 -1.7695,0.16537 -2.51457,0.49557 -0.74507,0.32174 -1.37593,0.77044 -1.89239,1.34617 -0.51647,0.56727 -0.91433,1.24007 -1.19373,2.019 -0.27093,0.77894 -0.40669,1.61711 -0.40669,2.51458 0,1.10913 0.15253,2.09146 0.45733,2.94659 0.3048,0.85513 0.72834,1.57484 1.27021,2.15904 0.55033,0.57573 1.19797,1.01605 1.94304,1.32085 0.75353,0.29633 1.57441,0.44442 2.46341,0.44442 0.46567,0 0.9356,-0.0425 1.40973,-0.12713 0.47414,-0.0762 0.93175,-0.19466 1.37201,-0.35553 0.44874,-0.16087 0.86782,-0.36425 1.25729,-0.60978 0.38947,-0.254 0.72364,-0.55017 1.00304,-0.88884 l -0.6351,-0.82527 c -0.1016,-0.14393 -0.24523,-0.21601 -0.4315,-0.21601 -0.14393,0 -0.3177,0.0676 -0.5209,0.20309 -0.19473,0.127 -0.44006,0.2667 -0.73639,0.4191 -0.29633,0.1524 -0.65225,0.29654 -1.06712,0.43201 -0.4064,0.127 -0.89311,0.19017 -1.46037,0.19017 -0.6096,0 -1.16,-0.0972 -1.65107,-0.29197 -0.49106,-0.2032 -0.91409,-0.50382 -1.26969,-0.90175 -0.3556,-0.4064 -0.63499,-0.90989 -0.83819,-1.51102 -0.2032,-0.60114 -0.31328,-1.30852 -0.33021,-2.12132 h 8.55969 c 0.21166,0 0.35529,-0.0592 0.43149,-0.17777 0.0762,-0.11853 0.11472,-0.35547 0.11472,-0.71107 0,-0.9144 -0.13576,-1.72741 -0.40669,-2.43861 -0.26247,-0.71966 -0.63071,-1.32039 -1.10484,-1.80299 -0.47413,-0.49106 -1.03737,-0.86376 -1.6893,-1.11776 -0.65194,-0.26247 -1.36274,-0.39377 -2.13321,-0.39377 z m -105.09281,0.20309 v 8.20415 c 0,0.72813 0.0888,1.39306 0.26665,1.99419 0.18627,0.60113 0.46173,1.11352 0.82579,1.53686 0.36407,0.42333 0.81277,0.75357 1.34617,0.99063 0.54187,0.2286 1.16434,0.34262 1.86707,0.34262 0.89747,0 1.69319,-0.18609 2.38746,-0.55862 0.69426,-0.381 1.32067,-0.88055 1.87947,-1.49862 l 0.17776,1.38441 c 0.0847,0.31327 0.28805,0.46974 0.60979,0.46974 h 1.34617 v -12.86536 h -2.26085 v 9.48727 c -0.49106,0.5588 -1.02862,0.99467 -1.61282,1.30793 -0.5842,0.31327 -1.20667,0.46974 -1.86707,0.46974 -0.90593,0 -1.58318,-0.26655 -2.03192,-0.79995 -0.44873,-0.5334 -0.67282,-1.28718 -0.67282,-2.26084 v -8.20415 z m 73.25393,0 v 12.86536 h 2.26033 v -12.86536 z m -8.90282,1.40973 c 0.9144,0 1.60843,0.233 2.08256,0.69866 0.4826,0.46567 0.72399,1.09208 0.72399,1.87948 0,0.381 -0.0592,0.73246 -0.17777,1.05419 -0.11853,0.31327 -0.29623,0.58428 -0.5333,0.81288 -0.23706,0.2286 -0.53323,0.4063 -0.88883,0.5333 -0.34713,0.127 -0.74945,0.19068 -1.20665,0.19068 -0.44873,0 -0.84659,-0.0637 -1.19372,-0.19068 -0.34713,-0.127 -0.63937,-0.3047 -0.87643,-0.5333 -0.23707,-0.2286 -0.41922,-0.49961 -0.54622,-0.81288 -0.11854,-0.32173 -0.17777,-0.67319 -0.17777,-1.05419 0,-0.7874 0.23693,-1.41381 0.71107,-1.87948 0.4826,-0.46566 1.17714,-0.69866 2.08307,-0.69866 z m -12.49691,0.0512 c 0.51647,0 0.97356,0.0888 1.3715,0.26665 0.4064,0.16933 0.74947,0.41465 1.02887,0.73639 0.2794,0.31326 0.49117,0.68989 0.63511,1.13016 0.14393,0.4318 0.216,0.91012 0.216,1.43506 h -6.99802 c 0.1524,-1.1176 0.54187,-1.98933 1.16841,-2.61587 0.62653,-0.635 1.48593,-0.95239 2.57813,-0.95239 z m 53.28926,0 c 0.51646,0 0.97356,0.0888 1.37149,0.26665 0.4064,0.16933 0.74948,0.41465 1.02888,0.73639 0.2794,0.31326 0.49117,0.68989 0.6351,1.13016 0.14393,0.4318 0.21549,0.91012 0.21549,1.43506 h -6.9975 c 0.1524,-1.1176 0.54187,-1.98933 1.1684,-2.61587 0.62653,-0.635 1.48594,-0.95239 2.57814,-0.95239 z m -119.96426,5.61309 v 2.67994 c -0.254,0.27094 -0.51661,0.51232 -0.78755,0.72399 -0.26246,0.21167 -0.54185,0.3933 -0.83819,0.5457 -0.28786,0.14394 -0.59687,0.25847 -0.92707,0.34313 -0.3302,0.0762 -0.69399,0.11421 -1.09193,0.11421 -0.29633,0 -0.57179,-0.0341 -0.82579,-0.1018 -0.254,-0.0762 -0.47415,-0.19022 -0.66042,-0.34262 -0.18627,-0.16087 -0.33435,-0.36425 -0.44442,-0.60978 -0.11006,-0.24553 -0.16485,-0.53725 -0.16485,-0.87592 0,-0.3556 0.1017,-0.67745 0.3049,-0.96531 0.21166,-0.28787 0.54584,-0.53764 1.00304,-0.74931 0.4572,-0.21167 1.05005,-0.38098 1.77818,-0.50798 0.72813,-0.13547 1.6127,-0.22038 2.6541,-0.25425 z m 77.22888,4.71186 c 0.41487,0.0677 0.85073,0.11413 1.30793,0.13953 0.4572,0.0254 0.90591,0.0511 1.34617,0.0765 0.44027,0.0169 0.85936,0.0505 1.25729,0.10128 0.39793,0.0508 0.7494,0.13126 1.0542,0.24133 0.3048,0.1016 0.54619,0.24969 0.72399,0.44442 0.1778,0.19473 0.26665,0.45341 0.26665,0.77515 0,0.33866 -0.0888,0.64767 -0.26665,0.92707 -0.1778,0.2794 -0.43597,0.52027 -0.77463,0.72347 -0.3302,0.2032 -0.73697,0.36019 -1.21957,0.47026 -0.4826,0.11006 -1.02854,0.16484 -1.63814,0.16484 -0.62653,0 -1.17248,-0.0548 -1.63814,-0.16484 -0.4572,-0.1016 -0.83829,-0.24575 -1.14309,-0.43202 -0.3048,-0.1778 -0.53334,-0.3935 -0.68574,-0.6475 -0.14394,-0.24554 -0.21601,-0.51261 -0.21601,-0.80047 0,-0.4572 0.14808,-0.85061 0.44442,-1.18081 0.3048,-0.3302 0.69872,-0.60959 1.18132,-0.83819 z" />
  </g>
</svg>
